
<svg width="512" height="512" viewBox="0 0 512 512" fill="none" xmlns="http://www.w3.org/2000/svg">
  <circle cx="256" cy="256" r="248" fill="#08a0ed" stroke="#0066cc" stroke-width="16"/>
  <path d="M161.5 355C158.167 355 156.5 353.333 156.5 350L158 175C158 171.667 159.667 170 163 170C197 168.667 230.5 169.667 263.5 173C267 173 268.833 174.667 269 178L271.5 217.5C271.5 220.5 269.5 222 265.5 222C261.833 222 258.167 222 254.5 222C251.167 222 249.5 220.167 249.5 216.5C249.5 208.833 249.5 201.167 249.5 193.5C249.5 189.833 247.5 187.833 243.5 187.5C233.5 187.5 223.5 187.5 213.5 187.5C210.5 187.5 208.833 189.167 208.5 192.5L208 267.5C207.667 271.5 209.667 273.5 214 273.5C224 273.5 234 273.5 244 273.5C248 273.5 250 271.667 250 268L249.5 246C249.5 242.333 251.5 240.5 255.5 240.5H269.5C273.5 240.5 275.5 242.5 275.5 246.5L273 302.5C273 306.167 271 308 267 308H254C250.667 308 249 306.333 249 303V290C249 286.333 247.167 284.5 243.5 284.5H214C210 284.5 208 286.333 208 290L208.5 332.5C208.5 336.5 210.5 338.5 214.5 338.5C226.167 338.5 237.833 338.5 249.5 338.5C254.167 338.5 256.5 336.333 256.5 332L257 307.5C257 303.833 259 302 263 302H272C276 302 278 303.667 278 307L277.5 342C277.5 345.333 275.5 347 271.5 347L161.5 355Z" fill="black"/>
  <path d="M337.5 192.5C317.1 192.5 300.5 209.1 300.5 229.5C300.5 249.9 317.1 266.5 337.5 266.5C357.9 266.5 374.5 249.9 374.5 229.5C374.5 209.1 357.9 192.5 337.5 192.5ZM337.5 261.5C319.9 261.5 305.5 247.1 305.5 229.5C305.5 211.9 319.9 197.5 337.5 197.5C355.1 197.5 369.5 211.9 369.5 229.5C369.5 247.1 355.1 261.5 337.5 261.5Z" fill="black"/>
  <path d="M127.5 142.5C127.5 142.5 143.5 127.5 165.5 134.5C165.5 134.5 264.5 236.5 316.5 223.5C316.5 223.5 354.5 208.5 370.5 258.5C370.5 258.5 347.5 367.5 209.5 334.5" stroke="black" stroke-width="8" stroke-linecap="round" stroke-linejoin="round"/>
  <path d="M206 328.5L191 372L221.5 354.5L206 328.5Z" fill="black"/>
  <path d="M314.5 237.5L314.5 246L331 232L314.5 218L314.5 226.5L287 233.5L314.5 237.5Z" fill="black"/>
  <path d="M340.5 228L331 242L354 246.5L347 228.5L340.5 228Z" fill="black"/>
</svg>
